<svg xmlns="http://www.w3.org/2000/svg" width="15" height="15" viewBox="0 0 15 15" fill="none"><path d="M7.5625 4.1499C9.4082 4.1499 10.9316 5.67334 10.9316 7.51904C10.9316 9.39404 9.4082 10.8882 7.5625 10.8882C5.6875 10.8882 4.19336 9.39404 4.19336 7.51904C4.19336 5.67334 5.6875 4.1499 7.5625 4.1499ZM7.5625 9.71631C8.76367 9.71631 9.73047 8.74951 9.73047 7.51904C9.73047 6.31787 8.76367 5.35107 7.5625 5.35107C6.33203 5.35107 5.36523 6.31787 5.36523 7.51904C5.36523 8.74951 6.36133 9.71631 7.5625 9.71631ZM11.8398 4.03271C11.8398 3.59326 11.4883 3.2417 11.0488 3.2417C10.6094 3.2417 10.2578 3.59326 10.2578 4.03271C10.2578 4.47217 10.6094 4.82373 11.0488 4.82373C11.4883 4.82373 11.8398 4.47217 11.8398 4.03271ZM14.0664 4.82373C14.125 5.90771 14.125 9.15967 14.0664 10.2437C14.0078 11.2983 13.7734 12.2065 13.0117 12.9976C12.25 13.7593 11.3125 13.9937 10.2578 14.0522C9.17383 14.1108 5.92188 14.1108 4.83789 14.0522C3.7832 13.9937 2.875 13.7593 2.08398 12.9976C1.32227 12.2065 1.08789 11.2983 1.0293 10.2437C0.970703 9.15967 0.970703 5.90771 1.0293 4.82373C1.08789 3.76904 1.32227 2.83154 2.08398 2.06982C2.875 1.30811 3.7832 1.07373 4.83789 1.01514C5.92188 0.956543 9.17383 0.956543 10.2578 1.01514C11.3125 1.07373 12.25 1.30811 13.0117 2.06982C13.7734 2.83154 14.0078 3.76904 14.0664 4.82373ZM12.6602 11.3862C13.0117 10.5366 12.9238 8.48584 12.9238 7.51904C12.9238 6.58154 13.0117 4.53076 12.6602 3.65186C12.4258 3.09521 11.9863 2.62646 11.4297 2.42139C10.5508 2.06982 8.5 2.15771 7.5625 2.15771C6.5957 2.15771 4.54492 2.06982 3.69531 2.42139C3.10938 2.65576 2.66992 3.09521 2.43555 3.65186C2.08398 4.53076 2.17188 6.58154 2.17188 7.51904C2.17188 8.48584 2.08398 10.5366 2.43555 11.3862C2.66992 11.9722 3.10938 12.4116 3.69531 12.646C4.54492 12.9976 6.5957 12.9097 7.5625 12.9097C8.5 12.9097 10.5508 12.9976 11.4297 12.646C11.9863 12.4116 12.4551 11.9722 12.6602 11.3862Z" fill="black"></path></svg>