<svg xmlns="http://www.w3.org/2000/svg" width="14" height="15" viewBox="0 0 14 15" fill="none"><path d="M2.92969 14.144H0.205078V5.38428H2.92969V14.144ZM1.55273 4.2124C0.703125 4.2124 0 3.47998 0 2.60107C0 2.04443 0.292969 1.51709 0.761719 1.25342C1.25977 0.960449 1.875 0.960449 2.34375 1.25342C2.8418 1.51709 3.13477 2.04443 3.13477 2.60107C3.13477 3.47998 2.43164 4.2124 1.55273 4.2124ZM13.0957 14.144H10.4004V9.896C10.4004 8.87061 10.3711 7.58154 8.96484 7.58154C7.55859 7.58154 7.35352 8.66553 7.35352 9.80811V14.144H4.62891V5.38428H7.23633V6.58545H7.26562C7.64648 5.91162 8.52539 5.1792 9.84375 5.1792C12.5977 5.1792 13.125 6.99561 13.125 9.33936V14.144H13.0957Z" fill="black"></path></svg>